<?xml version="1.0" standalone="no"?>
<!DOCTYPE svg PUBLIC "-//W3C//DTD SVG 20010904//EN"
 "http://www.w3.org/TR/2001/REC-SVG-20010904/DTD/svg10.dtd">
<svg version="1.0" xmlns="http://www.w3.org/2000/svg"
 width="800.000000pt" height="800.000000pt" viewBox="0 0 800.000000 800.000000"
 preserveAspectRatio="xMidYMid meet">
<metadata>
Created by potrace 1.11, written by Peter Selinger 2001-2013
</metadata>
<g transform="translate(0.000000,800.000000) scale(0.100000,-0.100000)"
fill="#000000" stroke="none">
<path d="M0 4000 l0 -4000 4000 0 4000 0 0 4000 0 4000 -4000 0 -4000 0 0
-4000z m6500 3425 c30 -9 88 -30 128 -47 l72 -30 0 -109 c0 -60 -2 -109 -5
-109 -3 0 -34 21 -68 48 -208 159 -454 159 -603 0 -89 -95 -128 -221 -128
-413 -1 -144 11 -208 55 -301 123 -261 430 -308 687 -105 28 23 54 41 57 41 3
0 5 -47 5 -106 l0 -105 -62 -29 c-285 -132 -585 -99 -754 83 -71 75 -115 155
-146 262 -20 70 -23 102 -23 260 0 161 2 188 23 255 72 227 206 363 412 416
73 18 275 12 350 -11z m-4370 -80 l0 -75 -320 0 -320 0 0 -180 0 -180 300 0
300 0 0 -75 0 -75 -300 0 -300 0 0 -250 0 -250 320 0 320 0 0 -75 0 -75 -410
0 -410 0 0 655 0 655 410 0 410 0 0 -75z m594 -287 c88 -196 162 -355 165
-353 2 3 73 164 157 357 l152 353 126 3 126 3 0 -656 0 -655 -90 0 -90 0 -2
556 -3 556 -166 -374 -166 -373 -57 0 -57 0 -162 368 -162 369 -3 -551 -2
-551 -85 0 -85 0 0 655 0 656 122 -3 122 -3 160 -357z m1497 348 c191 -41 305
-167 317 -351 9 -149 -48 -278 -160 -360 -93 -69 -157 -87 -335 -92 l-153 -5
0 -244 0 -244 -90 0 -90 0 0 655 0 655 223 0 c152 0 243 -5 288 -14z m999 11
c0 -2 99 -297 220 -655 l219 -652 -94 0 -94 0 -57 180 -57 180 -251 0 -251 0
-58 -180 -57 -180 -90 0 -89 0 189 563 c104 309 203 604 220 655 l32 92 109 0
c60 0 109 -1 109 -3z m-208 -1678 c787 -312 1451 -921 1821 -1669 112 -225
157 -332 157 -368 0 -50 -46 -92 -100 -92 -56 0 -87 34 -130 142 -51 130 -182
383 -266 514 -372 583 -907 1027 -1543 1280 -75 30 -144 64 -153 75 -29 34
-24 95 11 130 40 40 78 38 203 -12z m-122 -382 c217 -84 453 -217 675 -382
440 -325 831 -829 1011 -1302 13 -35 28 -71 33 -80 35 -65 33 -112 -7 -155
-20 -22 -35 -28 -67 -28 -56 0 -85 32 -126 140 -258 680 -799 1258 -1467 1566
-64 30 -147 64 -184 75 -75 23 -118 62 -118 107 0 40 35 90 67 98 15 3 33 7
38 8 10 3 37 -6 145 -47z m-151 -352 c318 -127 627 -331 873 -577 259 -259
486 -617 608 -959 40 -113 41 -118 26 -153 -20 -48 -72 -72 -121 -56 -46 15
-58 32 -96 145 -40 119 -145 337 -219 455 -176 282 -434 548 -715 735 -122 81
-386 214 -489 246 -71 22 -78 27 -96 64 -23 47 -18 78 18 118 37 39 77 35 211
-18z m-768 -215 c196 -20 460 -83 631 -151 547 -217 1008 -681 1223 -1229 41
-105 103 -340 131 -495 14 -76 18 -152 18 -315 0 -240 -9 -309 -74 -565 -79
-312 -203 -557 -414 -820 -230 -286 -557 -527 -896 -660 -105 -41 -340 -103
-495 -131 -141 -25 -489 -25 -630 0 -155 28 -390 90 -495 131 -339 133 -666
374 -896 660 -211 263 -335 508 -414 820 -65 256 -74 325 -74 565 0 240 9 309
74 565 61 242 148 439 277 633 311 465 750 785 1256 917 307 79 524 100 778
75z"/>
<path d="M3890 7010 l0 -263 128 6 c147 7 184 16 240 57 63 46 94 114 94 210
0 117 -37 177 -136 220 -39 18 -75 23 -187 27 l-139 6 0 -263z"/>
<path d="M5100 7226 c0 -3 -43 -137 -95 -298 -52 -160 -95 -295 -95 -299 0 -5
89 -9 199 -9 l199 0 -100 302 c-91 277 -108 325 -108 304z"/>
<path d="M3575 4589 c-443 -46 -860 -241 -1184 -553 -623 -601 -788 -1536
-407 -2311 316 -644 930 -1061 1644 -1117 565 -45 1121 154 1531 547 632 606
800 1539 417 2320 -200 408 -513 721 -921 921 -332 163 -715 231 -1080 193z
m240 -573 c18 -8 39 -25 47 -38 10 -18 14 -162 18 -696 l5 -674 375 -233 c362
-225 376 -235 393 -277 18 -41 18 -47 3 -81 -30 -72 -113 -82 -176 -23 -14 14
-191 128 -395 254 -338 210 -372 234 -392 273 l-23 42 0 684 c0 757 -1 740 62
768 41 18 42 18 83 1z"/>
</g>
</svg>
