<?xml version="1.0" standalone="no"?>
<!DOCTYPE svg PUBLIC "-//W3C//DTD SVG 20010904//EN"
 "http://www.w3.org/TR/2001/REC-SVG-20010904/DTD/svg10.dtd">
<svg version="1.0" xmlns="http://www.w3.org/2000/svg"
 width="800.000000pt" height="800.000000pt" viewBox="0 0 800.000000 800.000000"
 preserveAspectRatio="xMidYMid meet">
<metadata>
Created by potrace 1.11, written by Peter Selinger 2001-2013
</metadata>
<g transform="translate(0.000000,800.000000) scale(0.100000,-0.100000)"
fill="#000000" stroke="none">
<path d="M0 4000 l0 -4000 4000 0 4000 0 0 4000 0 4000 -4000 0 -4000 0 0
-4000z m6523 3631 c43 -11 110 -37 150 -58 l72 -38 3 -134 c2 -90 -1 -138 -9
-147 -23 -28 -71 -16 -128 30 -103 85 -237 133 -339 123 -76 -8 -173 -57 -216
-111 -157 -191 -154 -556 5 -750 38 -46 140 -95 211 -103 102 -10 220 31 330
115 70 54 114 66 137 38 8 -9 11 -57 9 -147 l-3 -134 -75 -37 c-158 -77 -344
-104 -515 -75 -268 47 -445 251 -487 562 -15 113 -5 331 21 428 63 241 245
415 474 457 81 14 271 4 360 -19z m-4355 -13 c16 -16 16 -210 0 -226 -9 -9
-95 -12 -325 -12 l-313 0 0 -130 0 -130 288 0 c211 0 291 -3 300 -12 8 -8 12
-48 12 -113 0 -65 -4 -105 -12 -113 -9 -9 -89 -12 -300 -12 l-288 0 0 -200 0
-200 313 0 c230 0 316 -3 325 -12 16 -16 16 -210 0 -226 -17 -17 -869 -17
-886 0 -17 17 -17 1369 0 1386 17 17 869 17 886 0z m436 -10 c8 -13 74 -157
147 -321 121 -271 134 -296 145 -275 6 13 67 151 134 308 68 157 127 291 133
298 13 17 298 17 315 0 17 -17 17 -1369 0 -1386 -18 -18 -232 -16 -247 1 -7
10 -12 151 -13 461 l-3 447 -113 -258 c-63 -142 -120 -268 -128 -280 -13 -21
-22 -23 -98 -23 -55 0 -87 4 -93 13 -5 6 -63 135 -129 285 l-119 272 -3 -451
c-1 -314 -6 -456 -13 -466 -15 -17 -209 -19 -227 -1 -17 17 -17 1369 0 1386 8
8 57 12 155 12 137 0 143 -1 157 -22z m1670 -2 c33 -9 82 -29 109 -43 68 -37
151 -130 176 -197 43 -115 37 -282 -14 -394 -31 -69 -132 -169 -206 -204 -80
-38 -126 -48 -276 -55 l-133 -6 0 -231 c0 -167 -3 -235 -12 -244 -8 -8 -49
-12 -118 -12 -69 0 -110 4 -118 12 -18 18 -17 1369 1 1387 19 20 512 9 591
-13z m983 12 c19 -25 443 -1308 443 -1341 0 -52 -12 -57 -135 -57 -94 0 -114
3 -127 18 -9 9 -40 90 -69 180 l-52 162 -212 0 -212 0 -53 -167 c-29 -93 -57
-174 -63 -180 -13 -18 -228 -18 -245 -1 -7 7 -12 28 -12 47 0 34 423 1313 443
1339 7 8 49 12 147 12 98 0 140 -4 147 -12z m44 -1643 c441 -175 841 -446
1194 -807 193 -196 312 -347 465 -587 143 -226 297 -552 307 -652 9 -95 -44
-159 -135 -159 -91 0 -125 38 -210 233 -131 298 -318 593 -527 832 -324 371
-770 686 -1217 861 -163 63 -198 96 -198 184 0 88 56 140 151 140 42 0 82 -11
170 -45z m-292 -421 c509 -203 976 -559 1308 -999 186 -247 356 -558 449 -820
42 -120 -15 -215 -129 -215 -93 0 -124 32 -191 200 -286 708 -852 1272 -1563
1558 -68 27 -130 55 -139 62 -58 49 -58 171 0 219 22 19 86 40 120 41 16 0 81
-21 145 -46z m-210 -460 c311 -123 604 -317 857 -569 153 -152 211 -222 326
-390 135 -197 222 -367 302 -591 39 -110 45 -168 21 -215 -49 -93 -209 -92
-261 1 -7 14 -30 70 -50 125 -54 149 -153 345 -243 480 -276 416 -656 720
-1126 902 -49 19 -98 42 -109 51 -29 27 -46 68 -46 112 0 89 56 140 154 140
47 0 83 -10 175 -46z m-703 -334 c503 -79 906 -282 1254 -630 294 -293 479
-616 579 -1011 56 -219 73 -357 73 -584 -1 -621 -223 -1158 -657 -1590 -259
-258 -572 -449 -895 -544 -194 -58 -415 -99 -565 -105 -665 -26 -1258 199
-1710 649 -258 256 -458 579 -549 887 -89 302 -107 422 -108 708 0 222 17 361
73 579 100 395 285 718 579 1011 339 340 724 537 1220 625 207 37 486 39 706
5z"/>
<path d="M3930 7169 l0 -212 103 5 c161 7 232 50 264 157 13 46 13 63 3 108
-23 106 -111 153 -283 153 l-87 0 0 -211z"/>
<path d="M5045 7045 c-33 -104 -61 -194 -63 -201 -3 -11 21 -14 122 -14 69 0
126 3 126 8 0 4 -28 94 -63 201 l-62 193 -60 -187z"/>
<path d="M3580 4484 c-14 -2 -59 -9 -100 -15 -325 -46 -672 -198 -935 -407
-460 -367 -735 -937 -735 -1522 0 -586 275 -1154 735 -1522 214 -171 496 -309
755 -371 190 -46 247 -52 460 -52 213 0 270 6 460 52 390 93 768 327 1026 636
618 738 618 1776 0 2514 -176 211 -382 369 -648 498 -203 98 -400 156 -628
184 -78 10 -333 13 -390 5z m177 -584 c65 -39 63 -10 64 -742 l0 -663 372
-230 c325 -201 374 -235 394 -270 27 -48 30 -122 8 -166 -37 -70 -149 -93
-216 -44 -19 13 -205 131 -413 261 -336 211 -382 243 -407 283 l-29 45 0 723
c0 799 -3 763 63 803 20 13 50 20 82 20 32 0 62 -7 82 -20z"/>
</g>
</svg>
